#N canvas 643 132 974 563 12;
#X obj 32 57 import mrpeach;
#X obj 100 154 unpackOSC;
#X obj 100 190 routeOSC /popeye/pose/nose;
#X obj 100 230 unpack f f f;
#X floatatom 100 270 5 0 0 0 - - -, f 5;
#X floatatom 200 270 5 0 0 0 - - -, f 5;
#X floatatom 260 270 5 0 0 0 - - -, f 5;
#X msg 599 123 100;
#X msg 680 130 150;
#X msg 510 110 60;
#X obj 580 220 noteout 1;
#X floatatom 100 329 5 0 0 0 - - -, f 5;
#X obj 100 300 expr 1 - $f1;
#X obj 100 360 * 127;
#X floatatom 100 390 5 0 0 0 - - -, f 5;
#X obj 100 420 int;
#X floatatom 100 450 5 0 0 0 - - -, f 5;
#X obj 570 420 ctlout;
#X msg 610 390 1;
#X msg 590 370 127;
#X obj 580 173 makenote 100 50;
#X text 500 80 midi not number;
#X text 600 100 velocity;
#X text 680 100 duration;
#X text 590 340 controller;
#X text 620 370 channel;
#X obj 100 110 udpreceive 8000;
#X floatatom 200 329 5 0 0 0 - - -, f 5;
#X obj 200 300 expr 1 - $f1;
#X obj 200 360 * 127;
#X floatatom 200 390 5 0 0 0 - - -, f 5;
#X obj 200 420 int;
#X floatatom 200 450 5 0 0 0 - - -, f 5;
#X connect 1 0 2 0;
#X connect 2 0 3 0;
#X connect 3 0 4 0;
#X connect 3 1 5 0;
#X connect 3 2 6 0;
#X connect 4 0 12 0;
#X connect 5 0 28 0;
#X connect 7 0 20 1;
#X connect 8 0 20 2;
#X connect 9 0 20 0;
#X connect 11 0 13 0;
#X connect 12 0 11 0;
#X connect 13 0 14 0;
#X connect 14 0 15 0;
#X connect 15 0 16 0;
#X connect 16 0 17 0;
#X connect 16 0 20 0;
#X connect 18 0 17 2;
#X connect 19 0 17 1;
#X connect 20 0 10 0;
#X connect 20 1 10 1;
#X connect 26 0 1 0;
#X connect 27 0 29 0;
#X connect 28 0 27 0;
#X connect 29 0 30 0;
#X connect 30 0 31 0;
#X connect 30 0 32 0;
#X connect 31 0 32 0;
#X connect 32 0 20 1;
